<svg width="40" height="40" viewBox="0 0 40 40" fill="none" xmlns="http://www.w3.org/2000/svg">
<path d="M0 20C0 8.95431 8.95431 0 20 0V0C31.0457 0 40 8.95431 40 20V20C40 31.0457 31.0457 40 20 40V40C8.95431 40 0 31.0457 0 20V20Z" fill="#ED6E5A"/>
<path d="M24.08 30L19.28 21.66H16.67V30H13.25V9.15H20.45C22.05 9.15 23.4 9.43 24.5 9.99C25.62 10.55 26.45 11.3 26.99 12.24C27.55 13.18 27.83 14.23 27.83 15.39C27.83 16.75 27.43 17.99 26.63 19.11C25.85 20.21 24.64 20.96 23 21.36L28.16 30H24.08ZM16.67 18.93H20.45C21.73 18.93 22.69 18.61 23.33 17.97C23.99 17.33 24.32 16.47 24.32 15.39C24.32 14.31 24 13.47 23.36 12.87C22.72 12.25 21.75 11.94 20.45 11.94H16.67V18.93Z" fill="white"/>
</svg>
